<?xml version="1.0" encoding="UTF-8" standalone="no"?>
<svg
   xmlns="http://www.w3.org/2000/svg"
   version="1.1"
   id="Layer_1"
   width="60" height="150" viewBox="10 28 60 150"
>

<path id="bass_clef"
   d="M 51.936,96.822 C 50.448,99.557 48.576,102.245 46.32,104.885 C 44.064,107.525 41.664,109.756 39.12,111.58 C 36.192,113.74 32.568,115.636 28.248,117.268 C 25.56,118.276 21.696,119.236 16.656,120.148 L 16.152,119.068 C 18.599,118.252 20.88,117.364 22.992,116.404 C 28.032,114.148 31.8,111.7 34.296,109.061 C 42.359,100.661 46.272,90.461 46.032,78.463 C 45.983,74.432 45.288,70.999 43.944,68.167 C 42.024,64.088 39.072,62.048 35.088,62.048 C 32.256,62.048 29.544,63.032 26.952,65 C 24.12,67.112 22.824,69.464 23.064,72.056 C 23.112,72.201 23.208,72.272 23.352,72.272 C 25.992,71.6 27.936,71.289 29.184,71.336 C 30.864,71.385 32.255,72.2 33.36,73.784 C 34.368,75.177 34.872,76.832 34.872,78.752 C 34.872,80.815 34.283,82.52 33.107,83.864 C 31.931,85.207 30.287,85.88 28.175,85.88 C 25.727,85.88 23.663,85.088 21.984,83.504 C 20.16,81.871 19.248,79.735 19.248,77.096 C 19.103,70.376 21.768,65.504 27.24,62.48 C 30.216,60.849 33.504,60.009 37.104,59.96 C 40.799,59.864 44.4,61.028 47.904,63.452 C 51.408,65.876 53.832,68.96 55.176,72.703 C 55.991,74.959 56.4,77.383 56.4,79.974 C 56.4,82.23 56.112,84.725 55.536,87.461 C 54.911,90.342 53.711,93.462 51.936,96.822 z M 59.207,69.104 C 59.158,68 59.519,67.089 60.287,66.369 C 61.055,65.649 61.991,65.265 63.095,65.217 C 64.199,65.217 65.147,65.566 65.939,66.261 C 66.731,66.957 67.127,67.858 67.127,68.961 C 67.175,70.065 66.803,71.014 66.011,71.806 C 65.219,72.598 64.295,72.994 63.24,72.994 C 62.136,73.042 61.187,72.682 60.395,71.914 C 59.603,71.146 59.207,70.209 59.207,69.104 z M 59.207,87.249 C 59.207,86.192 59.591,85.293 60.358,84.55 C 61.126,83.805 62.062,83.409 63.167,83.362 C 64.271,83.362 65.207,83.721 65.975,84.442 C 66.743,85.162 67.151,86.049 67.2,87.106 C 67.2,88.21 66.815,89.157 66.048,89.95 C 65.28,90.741 64.368,91.138 63.313,91.138 C 62.209,91.186 61.26,90.826 60.468,90.059 C 59.675,89.289 59.255,88.353 59.207,87.249 z"
   />

</svg>
