<?xml version="1.0" encoding="UTF-8" standalone="no"?>
<svg
   xmlns="http://www.w3.org/2000/svg"
   version="1.1"
   id="Layer_1"
   width="60" height="150" viewBox="10 20 60 150"
>

<path id="treble_clef"
   d="M 46.63,132.558 C 44.854,132.846 42.909,132.991 40.798,132.991 C 36.333,132.991 33.046,132.487 30.935,131.479 C 24.214,128.262 19.462,124.301 16.677,119.597 C 14.661,116.189 13.462,111.677 13.077,106.06 C 12.741,101.404 13.845,96.532 16.389,91.443 C 18.549,87.075 21.344,83.27 24.776,80.03 C 28.208,76.79 32.085,73.538 36.405,70.273 C 36.165,69.073 35.829,66.697 35.397,63.144 C 35.157,59.832 35.038,57.551 35.038,56.303 C 35.038,52.847 35.325,49.559 35.901,46.438 C 36.477,43.606 37.94,40.294 40.293,36.501 C 42.885,32.325 45.141,30.213 47.062,30.164 C 48.646,30.164 50.41,32.541 52.354,37.293 C 54.297,42.046 55.318,46.127 55.414,49.535 C 55.51,54.048 55.054,57.936 54.046,61.201 C 53.374,63.361 52.126,66.05 50.302,69.265 C 49.534,70.562 47.95,72.698 45.55,75.674 C 44.878,76.539 43.989,77.427 42.886,78.339 C 41.926,79.06 40.99,79.804 40.078,80.571 L 42.454,94.541 C 43.078,94.445 43.774,94.397 44.542,94.397 C 48.91,94.397 52.294,95.286 54.694,97.061 C 59.206,100.373 61.677,105.102 62.11,111.247 C 62.446,115.519 61.486,119.479 59.23,123.128 C 56.781,127.112 53.181,130.089 48.429,132.058 C 49.052,136.426 49.676,140.603 50.301,144.587 C 50.637,146.986 50.805,149.026 50.805,150.707 C 50.805,153.011 50.445,154.835 49.725,156.18 C 47.084,161.124 43.077,163.765 37.703,164.101 C 34.486,164.292 31.342,163.621 28.269,162.084 C 24.429,160.211 22.414,157.498 22.222,153.945 C 22.031,151.351 22.534,149.142 23.734,147.318 C 25.078,145.157 27.07,144.005 29.711,143.861 C 31.535,143.716 33.262,144.304 34.895,145.626 C 36.528,146.945 37.415,148.589 37.559,150.557 C 37.895,154.877 35.231,157.829 29.567,159.413 C 30.864,161.284 33.456,162.221 37.344,162.221 C 39.406,162.221 41.422,161.597 43.391,160.349 C 45.359,159.101 46.87,157.54 47.927,155.669 C 48.599,154.421 48.935,152.524 48.935,149.981 C 48.935,148.445 48.815,146.717 48.575,144.797 C 47.901,140.718 47.253,136.638 46.63,132.558 z M 42.094,104.622 C 38.589,104.718 35.948,105.942 34.173,108.294 C 32.829,110.118 32.23,112.158 32.374,114.414 C 32.421,116.094 33.034,117.81 34.21,119.562 C 35.386,121.314 36.669,122.549 38.062,123.27 C 37.822,123.414 37.582,123.677 37.343,124.062 C 34.558,122.718 32.517,121.158 31.222,119.382 C 29.302,116.789 28.222,113.909 27.982,110.741 C 27.837,108.63 28.318,106.422 29.423,104.117 C 30.622,101.621 32.374,99.485 34.677,97.709 C 36.406,96.365 38.373,95.43 40.581,94.901 L 38.421,81.869 C 36.79,82.83 34.439,84.702 31.366,87.485 C 27.573,90.893 24.813,93.941 23.087,96.629 C 19.341,102.438 17.638,107.453 17.974,111.677 C 18.359,116.909 20.734,121.409 25.103,125.178 C 29.47,128.945 34.607,130.829 40.51,130.829 C 42.43,130.829 44.35,130.612 46.27,130.181 C 44.829,121.638 43.438,113.118 42.094,104.622 z M 48.141,41.334 C 45.117,41.334 42.62,43.662 40.653,48.318 C 38.781,52.638 37.845,57.654 37.845,63.365 C 37.845,65.238 37.965,67.038 38.205,68.765 C 41.996,65.789 45.212,62.526 47.852,58.973 C 51.164,54.557 52.701,50.742 52.46,47.526 C 52.173,43.351 50.732,41.286 48.141,41.334 z M 43.965,104.479 L 47.997,129.607 C 54.093,127.543 56.877,122.815 56.35,115.423 C 55.773,107.79 51.645,104.143 43.965,104.479 z"
   />

</svg>
